<svg width="498" height="519" viewBox="0 0 498 519" fill="none" xmlns="http://www.w3.org/2000/svg">
<path d="M334.044 165.5L352 184.5V284.5H147V184.5L165.455 165.5H334.044Z" fill="#D9D9D9"/>
<rect x="147" y="294" width="205" height="149" fill="#D9D9D9"/>
<rect x="147" y="468.5" width="205" height="50" fill="#212121"/>
<path d="M365 0L498 106L365 172.5L332.5 146.5H166L134.5 172.5L1.5 106L134.5 0H365Z" fill="#D9D9D9"/>
<path d="M498 120.5V443.5H365V184L498 120.5Z" fill="#D9D9D9"/>
<path d="M0 121.5V444.5H133V185L0 121.5Z" fill="#D9D9D9"/>
<path d="M203.822 490.534V494.448H208.09V495.708H203.822V499.74H208.594V501H202.294V489.274H208.594V490.534H203.822ZM214.62 501.118C213.847 501.118 213.152 500.983 212.536 500.714C211.932 500.434 211.456 500.054 211.108 499.572C210.761 499.079 210.582 498.514 210.571 497.875H212.2C212.256 498.424 212.48 498.889 212.872 499.27C213.276 499.639 213.858 499.824 214.62 499.824C215.348 499.824 215.919 499.645 216.333 499.286C216.759 498.917 216.972 498.446 216.972 497.875C216.972 497.427 216.848 497.063 216.602 496.783C216.356 496.503 216.048 496.29 215.678 496.145C215.308 495.999 214.81 495.842 214.183 495.674C213.41 495.473 212.788 495.271 212.318 495.07C211.859 494.868 211.461 494.554 211.125 494.129C210.8 493.692 210.638 493.11 210.638 492.382C210.638 491.743 210.8 491.178 211.125 490.685C211.45 490.192 211.904 489.811 212.486 489.542C213.08 489.274 213.757 489.139 214.519 489.139C215.616 489.139 216.512 489.414 217.207 489.962C217.912 490.511 218.31 491.239 218.4 492.146H216.72C216.664 491.698 216.428 491.306 216.014 490.97C215.6 490.623 215.051 490.45 214.368 490.45C213.729 490.45 213.208 490.618 212.805 490.954C212.402 491.278 212.2 491.738 212.2 492.331C212.2 492.757 212.318 493.104 212.553 493.373C212.8 493.642 213.096 493.849 213.444 493.994C213.802 494.129 214.3 494.286 214.939 494.465C215.712 494.678 216.333 494.89 216.804 495.103C217.274 495.305 217.677 495.624 218.013 496.061C218.349 496.486 218.517 497.069 218.517 497.808C218.517 498.379 218.366 498.917 218.064 499.421C217.761 499.925 217.313 500.334 216.72 500.647C216.126 500.961 215.426 501.118 214.62 501.118ZM220.196 495.137C220.196 493.994 220.453 492.97 220.969 492.062C221.484 491.144 222.184 490.427 223.069 489.912C223.965 489.397 224.956 489.139 226.042 489.139C227.319 489.139 228.433 489.447 229.385 490.063C230.337 490.679 231.032 491.553 231.469 492.684H229.637C229.313 491.978 228.842 491.435 228.226 491.054C227.621 490.674 226.893 490.483 226.042 490.483C225.225 490.483 224.491 490.674 223.841 491.054C223.192 491.435 222.682 491.978 222.313 492.684C221.943 493.378 221.758 494.196 221.758 495.137C221.758 496.066 221.943 496.884 222.313 497.59C222.682 498.284 223.192 498.822 223.841 499.202C224.491 499.583 225.225 499.774 226.042 499.774C226.893 499.774 227.621 499.589 228.226 499.219C228.842 498.838 229.313 498.295 229.637 497.59H231.469C231.032 498.71 230.337 499.578 229.385 500.194C228.433 500.798 227.319 501.101 226.042 501.101C224.956 501.101 223.965 500.849 223.069 500.345C222.184 499.83 221.484 499.118 220.969 498.211C220.453 497.304 220.196 496.279 220.196 495.137ZM235.273 490.534V494.448H239.54V495.708H235.273V499.74H240.044V501H233.744V489.274H240.044V490.534H235.273ZM251.564 501H250.035L243.886 491.676V501H242.358V489.274H243.886L250.035 498.581V489.274H251.564V501ZM261.092 498.396H255.985L255.044 501H253.431L257.665 489.358H259.429L263.645 501H262.033L261.092 498.396ZM260.655 497.153L258.538 491.239L256.421 497.153H260.655ZM271.656 501L268.867 496.212H267.019V501H265.49V489.29H269.27C270.155 489.29 270.9 489.442 271.505 489.744C272.121 490.046 272.58 490.455 272.882 490.97C273.185 491.486 273.336 492.074 273.336 492.734C273.336 493.541 273.101 494.252 272.63 494.868C272.171 495.484 271.477 495.893 270.547 496.094L273.487 501H271.656ZM267.019 494.986H269.27C270.099 494.986 270.721 494.784 271.135 494.381C271.55 493.966 271.757 493.418 271.757 492.734C271.757 492.04 271.55 491.502 271.135 491.122C270.732 490.741 270.11 490.55 269.27 490.55H267.019V494.986ZM277.24 489.29V501H275.712V489.29H277.24ZM285.155 501.118C284.068 501.118 283.077 500.866 282.181 500.362C281.285 499.846 280.574 499.135 280.048 498.228C279.532 497.31 279.275 496.279 279.275 495.137C279.275 493.994 279.532 492.97 280.048 492.062C280.574 491.144 281.285 490.433 282.181 489.929C283.077 489.414 284.068 489.156 285.155 489.156C286.252 489.156 287.249 489.414 288.145 489.929C289.041 490.433 289.747 491.138 290.262 492.046C290.777 492.953 291.035 493.983 291.035 495.137C291.035 496.29 290.777 497.321 290.262 498.228C289.747 499.135 289.041 499.846 288.145 500.362C287.249 500.866 286.252 501.118 285.155 501.118ZM285.155 499.79C285.972 499.79 286.706 499.6 287.356 499.219C288.016 498.838 288.532 498.295 288.901 497.59C289.282 496.884 289.472 496.066 289.472 495.137C289.472 494.196 289.282 493.378 288.901 492.684C288.532 491.978 288.022 491.435 287.372 491.054C286.723 490.674 285.984 490.483 285.155 490.483C284.326 490.483 283.587 490.674 282.937 491.054C282.288 491.435 281.772 491.978 281.392 492.684C281.022 493.378 280.837 494.196 280.837 495.137C280.837 496.066 281.022 496.884 281.392 497.59C281.772 498.295 282.288 498.838 282.937 499.219C283.598 499.6 284.337 499.79 285.155 499.79Z" fill="white"/>
</svg>
